<?xml version="1.0" encoding="UTF-8"?>
<svg width="1200pt" height="1200pt" version="1.1" viewBox="0 0 1200 1200" xmlns="http://www.w3.org/2000/svg">
 <g>
  <path d="m1105.7 181.98c-41.094-41.105-96.816-64.223-154.94-64.289h-43.848v-43.844c0-15.672-8.3594-30.145-21.922-37.973s-30.281-7.8281-43.848 0c-13.562 7.8281-21.922 22.301-21.922 37.973v43.848h-175.38v-43.848c0-15.672-8.3594-30.145-21.922-37.973s-30.281-7.8281-43.848 0c-13.562 7.8281-21.922 22.301-21.922 37.973v43.848l-175.39-0.003906v-43.844c0-15.672-8.3594-30.145-21.922-37.973s-30.281-7.8281-43.848 0c-13.562 7.8281-21.922 22.301-21.922 37.973v43.848h-43.848c-58.125 0.066407-113.84 23.184-154.94 64.289-41.102 41.094-64.223 96.812-64.289 154.94v613.85c0.070312 58.125 23.188 113.84 64.289 154.94 41.094 41.105 96.816 64.227 154.94 64.293h701.54c58.125-0.066406 113.84-23.188 154.94-64.293 41.105-41.098 64.223-96.816 64.289-154.94v-613.85c-0.070312-58.125-23.188-113.84-64.289-154.94zm-23.402 768.79c0 34.891-13.859 68.34-38.52 93.016-24.676 24.664-58.125 38.523-93.016 38.523h-701.54c-34.891 0-68.344-13.859-93.016-38.523-24.664-24.672-38.52-58.125-38.52-93.016l-0.003906-482.31h964.62zm0-570h-964.62v-43.848c0-34.891 13.859-68.344 38.52-93.016 24.676-24.664 58.125-38.52 93.016-38.52h43.848v43.848c0 15.668 8.3594 30.145 21.922 37.973s30.281 7.8281 43.848 0c13.562-7.8281 21.922-22.309 21.922-37.973v-43.848h175.38v43.848c0 15.668 8.3594 30.145 21.922 37.973s30.281 7.8281 43.848 0c13.562-7.8281 21.922-22.309 21.922-37.973v-43.848h175.38v43.848c0 15.668 8.3594 30.145 21.922 37.973s30.281 7.8281 43.848 0c13.562-7.8281 21.922-22.309 21.922-37.973v-43.848h43.848c34.891 0 68.344 13.859 93.016 38.52 24.664 24.672 38.52 58.125 38.52 93.016z"/>
  <path d="m665.77 643.85c0 36.32-29.445 65.77-65.77 65.77s-65.77-29.449-65.77-65.77c0-36.324 29.445-65.77 65.77-65.77s65.77 29.445 65.77 65.77"/>
  <path d="m928.85 643.85c0 36.32-29.449 65.77-65.77 65.77-36.324 0-65.77-29.449-65.77-65.77 0-36.324 29.445-65.77 65.77-65.77 36.32 0 65.77 29.445 65.77 65.77"/>
  <path d="m402.69 643.85c0 36.32-29.445 65.77-65.77 65.77-36.32 0-65.77-29.449-65.77-65.77 0-36.324 29.449-65.77 65.77-65.77 36.324 0 65.77 29.445 65.77 65.77"/>
  <path d="m665.77 863.08c0 36.32-29.445 65.77-65.77 65.77s-65.77-29.449-65.77-65.77c0-36.324 29.445-65.77 65.77-65.77s65.77 29.445 65.77 65.77"/>
  <path d="m928.85 863.08c0 36.32-29.449 65.77-65.77 65.77-36.324 0-65.77-29.449-65.77-65.77 0-36.324 29.445-65.77 65.77-65.77 36.32 0 65.77 29.445 65.77 65.77"/>
  <path d="m402.69 863.08c0 36.32-29.445 65.77-65.77 65.77-36.32 0-65.77-29.449-65.77-65.77 0-36.324 29.449-65.77 65.77-65.77 36.324 0 65.77 29.445 65.77 65.77"/>
 </g>
</svg>
