<?xml version="1.0" encoding="UTF-8"?>
<svg width="1200pt" height="1200pt" version="1.1" viewBox="0 0 1200 1200" xmlns="http://www.w3.org/2000/svg">
 <g>
  <path d="m1105.7 94.289c-41.098-41.102-96.816-64.223-154.94-64.289h-701.54c-58.125 0.066406-113.84 23.184-154.94 64.289-41.102 41.098-64.223 96.82-64.289 154.94v701.54c0.070312 58.125 23.188 113.84 64.289 154.94 41.094 41.105 96.816 64.227 154.94 64.293h701.54c58.125-0.066406 113.84-23.188 154.94-64.293 41.105-41.098 64.223-96.816 64.289-154.94v-701.54c-0.070312-58.121-23.188-113.84-64.289-154.94zm-549.56 988.02h-306.92c-34.891 0-68.344-13.859-93.016-38.523-24.664-24.668-38.52-58.125-38.52-93.016l-0.003906-306.92h438.46zm0-526.16h-438.46v-306.92c0-34.891 13.859-68.344 38.52-93.016 24.676-24.664 58.125-38.52 93.016-38.52h306.92zm526.16 394.62c0 34.891-13.859 68.34-38.52 93.016-24.676 24.664-58.125 38.523-93.016 38.523h-306.93v-438.46h438.46zm0-394.62h-438.46v-438.46h306.92c34.891 0 68.344 13.859 93.016 38.52 24.664 24.672 38.52 58.125 38.52 93.016z"/>
  <path d="m211.26 315c-7.8281 13.562-7.8281 30.277 0 43.848 7.8281 13.562 22.305 21.922 37.973 21.922h43.848v43.848c0 15.668 8.3594 30.145 21.922 37.973s30.281 7.8281 43.848 0c13.562-7.8281 21.922-22.305 21.922-37.973v-43.848h43.848c15.668 0 30.145-8.3594 37.973-21.922 7.8281-13.566 7.8281-30.281 0-43.848s-22.305-21.922-37.973-21.922h-43.848v-43.848c0-15.672-8.3594-30.145-21.922-37.973-13.562-7.8281-30.281-7.8281-43.848 0-13.562 7.8281-21.922 22.305-21.922 37.973v43.848h-43.848c-15.668 0-30.145 8.3555-37.973 21.922z"/>
  <path d="m230.55 925.23c-0.097656 11.754 4.5312 23.07 12.84 31.387 8.3203 8.3086 19.633 12.941 31.387 12.844 11.766-0.10938 22.988-4.9336 31.164-13.391l30.996-30.996 30.996 30.996c8.1719 8.457 19.398 13.281 31.164 13.391 11.754 0.097657 23.07-4.5312 31.387-12.844 8.3086-8.3203 12.938-19.633 12.84-31.387-0.10547-11.766-4.9336-22.992-13.387-31.164l-30.996-30.996 30.996-30.996c8.2227-8.2227 12.84-19.383 12.84-31.008 0-11.629-4.6211-22.773-12.84-30.996v-0.003906c-8.2188-8.2227-19.367-12.84-30.996-12.84-11.625 0-22.785 4.6172-31.004 12.84l-30.996 30.996-30.996-30.996c-8.1719-8.457-19.398-13.281-31.164-13.387-11.754-0.097656-23.07 4.5312-31.387 12.84-8.3086 8.3203-12.938 19.633-12.84 31.387 0.10547 11.762 4.9336 22.992 13.387 31.164l30.996 30.996-30.996 30.996c-8.4609 8.1797-13.285 19.402-13.391 31.168z"/>
  <path d="m950.77 293.08h-175.39c-15.668 0-30.145 8.3555-37.973 21.922-7.8281 13.562-7.8281 30.277 0 43.848 7.8281 13.562 22.305 21.922 37.973 21.922h175.38c15.668 0 30.145-8.3594 37.973-21.922 7.8281-13.566 7.8281-30.281 0-43.848-7.8242-13.566-22.301-21.922-37.969-21.922z"/>
  <path d="m775.38 906.92h88.133c-15.719 0.078125-30.203 8.5234-38.012 22.156-7.8203 13.633-7.7812 30.414 0.10547 44.004 7.8789 13.594 22.402 21.973 38.121 21.973s30.242-8.3789 38.133-21.973c7.8789-13.598 7.918-30.371 0.10547-44.004-7.8086-13.633-22.305-22.074-38.012-22.156h86.809c15.668 0 30.145-8.3594 37.973-21.922 7.8281-13.566 7.8281-30.281 0-43.848s-22.305-21.922-37.973-21.922h-175.38c-15.668 0-30.145 8.3555-37.973 21.922-7.8281 13.562-7.8281 30.277 0 43.848 7.832 13.562 22.305 21.922 37.973 21.922z"/>
  <path d="m907.8 775.38c0-11.629-4.6172-22.785-12.852-31.008-8.2227-8.2227-19.367-12.84-30.996-12.84h-0.44141c-11.609 0.11719-22.688 4.8281-30.832 13.098-8.1328 8.2773-12.656 19.434-12.578 31.043 0.078126 11.598 4.7461 22.695 12.996 30.859 8.2422 8.1602 19.391 12.73 30.984 12.691 11.609-0.039062 22.727-4.6797 30.918-12.902 8.1992-8.2031 12.801-19.328 12.801-30.941z"/>
 </g>
</svg>
