<?xml version="1.0" encoding="UTF-8"?>
<svg width="1200pt" height="1200pt" version="1.1" viewBox="0 0 1200 1200" xmlns="http://www.w3.org/2000/svg">
 <path d="m1151.3 249.23v-0.39062c-4.7852-10.766-10.453-21.121-16.934-30.957-2.3203-3.5898-5.0391-6.8398-7.5469-10.309h0.007813c-5.1289-6.9961-10.668-13.691-16.578-20.031-2.9844-3.1641-5.9609-6.2734-9.1211-9.25v-0.007813c-7.125-6.7305-14.699-12.988-22.668-18.723-2.2812-1.6289-4.3828-3.5039-6.7031-5.0898v0.007813c-10.305-6.7695-21.18-12.633-32.492-17.539-3.418-1.5352-6.9688-2.6719-10.48-3.9961-8.8086-3.375-17.832-6.1953-27-8.418-3.9062-0.91797-7.7148-1.8867-11.707-2.582-12.957-2.625-26.121-4.0508-39.332-4.2578l-701.54 0.003906c-13.176 0.12891-26.309 1.4688-39.246 3.9961-3.9922 0.70312-7.8008 1.6641-11.707 2.582-9.168 2.2344-18.191 5.0391-27 8.418-3.5039 1.3125-7.0547 2.4609-10.48 3.9961-11.312 4.9023-22.188 10.773-32.492 17.539-2.3672 1.5781-4.3867 3.4648-6.7031 5.0898-7.9688 5.7266-15.543 11.98-22.668 18.711-3.1602 2.9844-6.1367 6.0977-9.1211 9.25v0.011718c-5.9102 6.3438-11.449 13.035-16.578 20.031-2.4961 3.4648-5.2148 6.7031-7.5469 10.309h0.011719c-6.4805 9.8359-12.148 20.191-16.934 30.953v0.39062c-12.336 27.684-18.727 57.645-18.766 87.949v526.16c0.070312 58.125 23.188 113.84 64.289 154.94 41.094 41.105 96.816 64.227 154.94 64.293v0.003906h701.54c58.125-0.070313 113.84-23.188 154.94-64.293 41.105-41.098 64.223-96.816 64.289-154.94v-526.16c-0.050781-30.215-6.4102-60.082-18.672-87.691zm-1001.1 2.0156c4.1914-4.7852 8.7031-9.2891 13.508-13.457 2.3203-2.0156 4.6484-4.0352 7.1055-5.8711v-0.007813c5.0508-3.7188 10.375-7.0586 15.914-9.9961 2.5859-1.4453 5.0898-3.0234 7.8008-4.3828 6.1953-2.75 12.586-5.0195 19.125-6.793 2.457-0.65625 4.7773-1.7109 7.2812-2.2344l-0.007813-0.007812c9.2852-2.0781 18.77-3.125 28.281-3.1133h701.55c9.5117 0.027344 19.008 1.125 28.285 3.25 2.4961 0.52734 4.8281 1.5742 7.2812 2.2344h-0.011719c6.5391 1.7695 12.93 4.0391 19.125 6.7891 2.7188 1.2227 5.2148 2.8086 7.8008 4.3867 5.5391 2.9727 10.852 6.3203 15.914 10.039 2.457 1.8398 4.7773 3.8555 7.1055 5.8711v0.007813c4.8047 4.1719 9.3164 8.6719 13.508 13.457l3.0234 3.6836-374.67 276.68c-22.57 16.82-49.973 25.918-78.133 25.918s-55.562-9.0938-78.133-25.918l-374.67-276.86zm932.08 611.83c0 34.891-13.859 68.34-38.523 93.016-24.672 24.664-58.125 38.523-93.016 38.523h-701.52c-34.891 0-68.34-13.859-93.016-38.523-24.664-24.672-38.523-58.125-38.523-93.016v-520.95l352.07 260.04c37.652 27.992 83.32 43.102 130.23 43.102 46.91 0 92.578-15.113 130.23-43.102l352.07-260.04z"/>
</svg>
