<?xml version="1.0" encoding="UTF-8"?>
<svg width="1200pt" height="1200pt" version="1.1" viewBox="0 0 1200 1200" xmlns="http://www.w3.org/2000/svg">
 <path d="m606.83 721.18c-55.617-27.184-106.77-77.531-133.53-133.48l0.16406-0.19141c6-6.1875 13.91-14.074 21.801-21.961 27.652-27.656 27.652-72.527 0-100.2l-61.688-61.688c-14.523-14.523-34.645-22.008-55.117-20.566-20.5 1.4609-39.348 11.734-51.672 28.172-11.527 15.375-24.469 32.637-35.922 47.895-25.41 33.863-30.746 78.758-13.98 117.63v0.027344c72.5 167.81 173.01 267.95 340.76 340.38 38.777 16.793 83.551 11.527 117.37-13.742 15.422-11.312 32.707-24.277 48.129-35.852 16.438-12.324 26.711-31.172 28.172-51.648 1.4414-20.496-6.0664-40.594-20.59-55.117l-61.688-61.688c-27.652-27.676-72.523-27.676-100.18 0zm-144.96-189.02c-8.0547 8.0312-16.082 16.082-22.223 22.387-13.695 13.84-17.453 34.695-9.4688 52.477 0.070312 0.14062 0.14062 0.28516 0.21094 0.42578 31.172 65.582 91.086 124.76 156.27 156.43 0.14062 0.070312 0.30469 0.14062 0.44531 0.21094 17.973 8.2422 39.18 4.4414 53.137-9.5391 6.1406-6.1406 14.078-14.078 22.012-22.012 9.2109-9.2109 24.184-9.2109 33.395 0 0 0 61.684 61.684 61.684 61.684 4.8398 4.8438 7.3438 11.551 6.8711 18.375-0.49609 6.8242-3.918 13.105-9.3984 17.215-15.305 11.477-32.449 24.348-47.75 35.566-0.070313 0.046875-0.14453 0.09375-0.21484 0.14062-20.285 15.234-47.16 18.398-70.422 8.3398-0.023438 0-0.023438-0.027344-0.023438-0.027344-155.63-67.188-248.87-160.04-316.12-315.75-10.062-23.332-6.8711-50.254 8.3828-70.562l35.922-47.918c4.1094-5.4805 10.391-8.9023 17.238-9.3984 6.8242-0.47266 13.531 2.0312 18.375 6.8711l61.684 61.684c9.2109 9.2109 9.2109 24.16 0 33.395zm116.88-10.98c52.145 0 94.465 42.344 94.465 94.465 0 13.035 10.582 23.613 23.617 23.613s23.617-10.578 23.617-23.613c0-78.195-63.48-141.7-141.7-141.7-13.035 0-23.613 10.605-23.613 23.617 0 13.035 10.578 23.617 23.613 23.617zm0-94.465c104.29 0 188.93 84.664 188.93 188.93 0 13.035 10.578 23.613 23.617 23.613 13.035 0 23.613-10.578 23.613-23.613 0-130.34-105.8-236.16-236.16-236.16-13.035 0-23.613 10.602-23.613 23.613 0 13.035 10.578 23.617 23.613 23.617zm0-106.27c162.93 0 295.2 132.27 295.2 295.2 0 13.035 10.578 23.613 23.613 23.613 13.039 0 23.617-10.578 23.617-23.613 0-188.98-153.43-342.43-342.43-342.43-13.035 0-23.613 10.602-23.613 23.617 0 13.035 10.578 23.613 23.613 23.613z" fill-rule="evenodd"/>
</svg>
