<?xml version="1.0" encoding="UTF-8"?>
<svg width="1200pt" height="1200pt" version="1.1" viewBox="0 0 1200 1200" xmlns="http://www.w3.org/2000/svg">
 <path d="m1120.8 764.11-60.559-60.648h-0.007813c-30.996-29.578-72.188-46.082-115.03-46.082-42.852 0-84.043 16.508-115.03 46.082-12.203 12.203-28.324 19.727-45.52 21.23-17.195 1.5156-34.375-3.0781-48.523-12.973-53.098-35.176-103.41-74.387-150.49-117.29-36.992-41.363-70.641-85.594-100.65-132.28-9.582-14.395-13.828-31.691-11.973-48.875 1.8516-17.195 9.6719-33.195 22.105-45.211 30.551-30.453 47.664-71.879 47.492-115.02l-0.015624-0.015625c0.11328-43.145-17.035-84.535-47.617-114.97l-60.559-60.469c-30.539-30.469-71.91-47.594-115.05-47.594s-84.512 17.125-115.03 47.598l-98.496 98.457c-34.09 34.531-57.711 77.996-68.152 125.38-10.441 47.375-7.2695 96.75 9.1445 142.41 58.648 147.3 145.2 281.89 254.89 396.37 68.152 68.551 271.17 239.8 430.7 302.16v-0.007812c40.832 17.105 84.496 26.449 128.75 27.586 52.602 1.3125 103.39-19.168 140.37-56.594l119.26-119.3c30.414-30.523 47.492-71.867 47.492-114.96-0.003906-43.098-17.082-84.441-47.496-114.98zm-63.297 167-119.26 119.3c-13.66 13.387-55.254 55.25-173.34 8.9258-138.35-54.043-328.66-210.3-399.84-281.94v-0.007813c-100.48-105.16-179.96-228.54-234.18-363.52-10.82-29.746-12.98-61.945-6.2383-92.875 6.7344-30.922 22.098-59.305 44.312-81.852l98.496-98.594c13.754-13.777 32.426-21.527 51.902-21.527 19.477 0 38.156 7.75 51.902 21.527l60.559 60.609h0.007812c13.809 13.719 21.559 32.395 21.508 51.863-0.050781 20.055-8.2461 39.223-22.715 53.109-26.672 26.727-43.215 61.887-46.812 99.473-3.5938 37.574 5.9766 75.242 27.09 106.54 32.953 51.324 70.102 99.824 111.08 145l-0.011719 0.019531c50.797 46.871 105.27 89.59 162.9 127.73 31.324 21.918 69.367 32.098 107.45 28.742 38.082-3.3594 73.762-20.023 100.77-47.082 13.988-13.34 32.566-20.789 51.906-20.789 19.328 0 37.914 7.4531 51.902 20.789l60.609 60.828c13.715 13.777 21.41 32.43 21.41 51.863 0.011719 19.441-7.6797 38.094-21.398 51.867z"/>
</svg>
