<?xml version="1.0" encoding="UTF-8"?>
<svg width="1200pt" height="1200pt" version="1.1" viewBox="0 0 1200 1200" xmlns="http://www.w3.org/2000/svg">
 <g>
  <path d="m781.5 1055.7h-363.01c-48.34 0-87.668-39.328-87.668-87.68v-736.01c0-48.352 39.328-87.68 87.668-87.68h363.01c48.352 0 87.68 39.328 87.68 87.68v736.01c0 48.352-39.328 87.68-87.68 87.68zm-363.01-864.49c-22.488 0-40.793 18.305-40.793 40.805v736.01c0 22.5 18.305 40.805 40.793 40.805h363.01c22.5 0 40.805-18.305 40.805-40.805v-736.01c0-22.5-18.305-40.805-40.805-40.805z"/>
  <path d="m600 965.78c-29.484 0-53.473-23.988-53.473-53.473 0-29.484 23.988-53.473 53.473-53.473s53.473 23.988 53.473 53.473c0 29.484-23.988 53.473-53.473 53.473zm0-60.07c-3.6445 0-6.5977 2.9648-6.5977 6.5977 0 3.6445 2.9648 6.5977 6.5977 6.5977 3.6445 0 6.5977-2.9648 6.5977-6.5977 0-3.6445-2.9531-6.5977-6.5977-6.5977z"/>
  <path d="m640.77 279.69h-81.539c-12.949 0-23.438-10.488-23.438-23.438 0-12.949 10.488-23.438 23.438-23.438h81.539c12.949 0 23.438 10.488 23.438 23.438 0 12.949-10.5 23.438-23.438 23.438z"/>
 </g>
</svg>
