<?xml version="1.0" encoding="UTF-8"?>
<svg width="1200pt" height="1200pt" version="1.1" viewBox="0 0 1200 1200" xmlns="http://www.w3.org/2000/svg">
 <g>
  <path d="m1169.3 477.28-22.973-299.51c-2.3555-32.121-16.188-62.336-38.973-85.102-22.773-22.773-52.984-36.594-85.121-38.945l-299.46-22.973c-65.727-5.293-130.44 18.637-176.92 65.418l-449.75 449.87c-42.488 42.223-66.301 99.703-66.125 159.6l0.007812-0.007813c-0.17578 59.898 23.637 117.38 66.125 159.6l238.7 238.7c42.352 42.281 99.75 66.035 159.6 66.035 59.848 0 117.25-23.754 159.6-66.035l449.87-449.87c46.629-46.508 70.539-111.12 65.422-176.79zm-127.59 114.75-449.87 449.87c-25.91 25.836-61.016 40.352-97.609 40.352s-71.691-14.516-97.598-40.352l-238.52-238.66c-25.887-25.887-40.43-60.996-40.43-97.598 0-36.613 14.539-71.719 40.43-97.609l-0.003907 0.007812 449.87-449.87h-0.007812c25.77-25.848 60.758-40.391 97.254-40.434 3.5547 0 7.1445 0 10.746 0.44141l299.39 22.98v-0.007812c11.227 0.8125 21.781 5.6367 29.742 13.594 7.9688 7.957 12.805 18.508 13.621 29.73l22.98 299.44-0.007812-0.011718c3.1562 40.168-11.457 79.691-39.98 108.13z"/>
  <path d="m797.83 268.69c-35.535 0-69.703 13.672-95.434 38.168-25.305 25.312-39.516 59.637-39.516 95.418 0 35.789 14.223 70.105 39.523 95.414 25.301 25.312 59.613 39.531 95.395 39.539l0.007813-0.039062c35.777-0.011719 70.086-14.23 95.383-39.531 25.305-25.301 39.523-59.605 39.531-95.387 0.019531-35.781-14.184-70.098-39.465-95.418-25.727-24.492-59.895-38.164-95.426-38.164zm33.352 166.99c-8.9844 8.6016-20.934 13.41-33.375 13.41-12.43 0-24.387-4.8047-33.363-13.41-8.8477-8.8594-13.812-20.867-13.812-33.383 0-12.52 4.9648-24.527 13.812-33.395l-0.050781 0.007812 0.007813-0.007812c8.8398-8.8867 20.863-13.879 33.406-13.848 12.508 0.039063 24.496 5.0312 33.344 13.879 8.8516 8.8477 13.84 20.836 13.879 33.344 0.03125 12.535-4.9609 24.566-13.848 33.402z"/>
 </g>
</svg>
