<?xml version="1.0" encoding="UTF-8"?>
<svg width="1200pt" height="1200pt" version="1.1" viewBox="0 0 1200 1200" xmlns="http://www.w3.org/2000/svg">
 <g>
  <path d="m1003.1 196.95c-106.89-106.89-251.88-166.95-403.05-166.95s-296.14 60.055-403.05 166.95c-106.89 106.89-166.95 251.88-166.95 403.05 0.17578 151.12 60.277 296 167.14 402.85 106.85 106.86 251.72 166.97 402.85 167.14l0.003906 0.007812c151.17 0 296.15-60.055 403.05-166.95 106.89-106.89 166.95-251.88 166.95-403.05s-60.051-296.14-166.95-403.05zm-62.012 744.11c-90.453 90.453-213.12 141.27-341.04 141.27s-250.59-50.812-341.04-141.27c-90.453-90.453-141.27-213.12-141.27-341.04 0.14844-127.86 51.008-250.46 141.43-340.87 90.41-90.422 213-141.29 340.87-141.43l0.007813-0.007812c127.91 0 250.6 50.812 341.04 141.27 90.449 90.453 141.27 213.12 141.27 341.04 0.003906 127.92-50.812 250.59-141.26 341.04z"/>
  <path d="m643.85 581.85v-332.6c0-15.668-8.3633-30.141-21.922-37.973-13.566-7.8281-30.285-7.8281-43.844 0-13.566 7.8281-21.922 22.305-21.922 37.973v350.77c0 11.629 4.6172 22.773 12.848 30.996l175.38 175.38c11.137 10.754 27.117 14.844 42.055 10.754 14.926-4.1016 26.594-15.766 30.691-30.691 4.0938-14.938 0-30.918-10.754-42.055z"/>
 </g>
</svg>
